HIERARCHY
ROOT Hips
{
 OFFSET 0.000000 0.000000 0.000000
 CHANNELS 6 Xposition Yposition Zposition Yrotation Xrotation Zrotation
 JOINT Chest
 {
  OFFSET 0.000000 9.857222 0.000240
  CHANNELS 3 Yrotation Xrotation Zrotation
  JOINT Chest2
  {
   OFFSET 0.000000 10.876940 -0.000436
   CHANNELS 3 Yrotation Xrotation Zrotation
   JOINT Chest3
   {
    OFFSET 0.000000 9.827798 0.000000
    CHANNELS 3 Yrotation Xrotation Zrotation
    JOINT Chest4
    {
     OFFSET 0.000000 9.827798 0.000000
     CHANNELS 3 Yrotation Xrotation Zrotation
     JOINT Neck
     {
      OFFSET 0.000000 13.831992 0.000000
      CHANNELS 3 Yrotation Xrotation Zrotation
      JOINT Head
      {
       OFFSET 0.000000 9.147643 -0.001036
       CHANNELS 3 Yrotation Xrotation Zrotation
       End Site
       {
        OFFSET 0.000000 17.515799 -0.000541
       }
      }
     }
     JOINT RightCollar
     {
      OFFSET -3.001579 7.717577 0.000000
      CHANNELS 3 Yrotation Xrotation Zrotation
      JOINT RightShoulder
      {
       OFFSET -14.002642 0.000000 0.000000
       CHANNELS 3 Yrotation Xrotation Zrotation
       JOINT RightElbow
       {
        OFFSET -30.053852 0.000000 0.000000
        CHANNELS 3 Yrotation Xrotation Zrotation
        JOINT RightWrist
        {
         OFFSET -24.564923 0.000000 -0.000000
         CHANNELS 3 Yrotation Xrotation Zrotation
         End Site
         {
          OFFSET -18.334355 0.000000 0.000000
         }
        }
       }
      }
     }
     JOINT LeftCollar
     {
      OFFSET 3.001579 7.717577 0.000000
      CHANNELS 3 Yrotation Xrotation Zrotation
      JOINT LeftShoulder
      {
       OFFSET 14.002642 0.000000 0.000000
       CHANNELS 3 Yrotation Xrotation Zrotation
       JOINT LeftElbow
       {
        OFFSET 30.053852 0.000000 0.000000
        CHANNELS 3 Yrotation Xrotation Zrotation
        JOINT LeftWrist
        {
         OFFSET 24.564923 0.000000 -0.000000
         CHANNELS 3 Yrotation Xrotation Zrotation
         End Site
         {
          OFFSET 18.334355 0.000000 0.000000
         }
        }
       }
      }
     }
    }
   }
  }
 }
 JOINT RightHip
 {
  OFFSET -8.003235 -0.001175 -0.000120
  CHANNELS 3 Yrotation Xrotation Zrotation
  JOINT RightKnee
  {
   OFFSET 0.000000 -41.759727 0.000113
   CHANNELS 3 Yrotation Xrotation Zrotation
   JOINT RightAnkle
   {
    OFFSET 0.000000 -40.728748 0.000159
    CHANNELS 3 Yrotation Xrotation Zrotation
    JOINT RightToe
    {
     OFFSET 0.000000 -6.515296 14.732841
     CHANNELS 3 Yrotation Xrotation Zrotation
     End Site
     {
      OFFSET 0.000000 -1.502839 6.412115
     }
    }
   }
  }
 }
 JOINT LeftHip
 {
  OFFSET 8.003235 -0.001175 -0.000120
  CHANNELS 3 Yrotation Xrotation Zrotation
  JOINT LeftKnee
  {
   OFFSET 0.000000 -41.759727 0.000113
   CHANNELS 3 Yrotation Xrotation Zrotation
   JOINT LeftAnkle
   {
    OFFSET 0.000000 -40.728748 0.000159
    CHANNELS 3 Yrotation Xrotation Zrotation
    JOINT LeftToe
    {
     OFFSET 0.000000 -6.515296 14.732841
     CHANNELS 3 Yrotation Xrotation Zrotation
     End Site
     {
      OFFSET 0.000000 -1.502839 6.412115
     }
    }
   }
  }
 }
}
MOTION
Frames: 5
Frame Time: 0.016667
26.800348 89.987317 26.817934 -34.284816 -7.114784 -10.441425 5.815804 6.199661 6.180216 2.553492 2.755603 2.779928 2.553492 2.755603 2.779928 1.902253 2.078408 2.073066 -9.162252 18.748992 3.334736 -17.840225 -0.345318 8.987843 9.884089 2.312964 13.031054 34.860825 -3.197245 83.761175 19.062523 -0.812282 -10.404599 -3.173784 1.610872 -8.153078 -28.524945 13.003013 -11.850768 -24.801125 9.607534 -61.064940 -47.209277 -25.039113 14.655142 -9.038155 11.458437 3.807957 143.412431 -81.425018 -139.186544 -91.149567 75.621015 -94.224030 15.651279 45.249095 2.342148 -0.175512 1.776219 -1.740242 19.123374 -11.111251 7.391005 -9.084254 26.539536 0.581868 1.029044 -9.835649 1.877361 -0.017396 -0.384510 -0.666431
27.091540 90.060196 27.034342 -34.438263 -7.203810 -10.271187 5.878089 6.214709 6.114887 2.583435 2.772856 2.749746 2.583435 2.772856 2.749746 1.924759 2.091357 2.050221 -9.213308 18.848075 3.304038 -17.911564 -0.160498 8.931811 9.807269 2.182978 13.095565 35.670870 -2.957941 83.562105 18.810242 -1.168569 -10.213005 -3.007662 1.532263 -7.995378 -28.521895 12.924889 -11.709491 -24.122543 9.524028 -61.093132 -47.549263 -24.082891 14.101287 -8.969839 11.425913 3.814729 135.840763 -82.667931 -130.963372 -89.638217 75.853778 -93.071625 15.993159 42.420991 3.850567 -0.230211 2.291089 -1.878272 18.509769 -10.560616 6.994793 -8.908553 26.123791 0.729437 1.300950 -9.530448 2.157059 -0.002590 -0.371331 -0.690186
27.405967 90.100190 27.205300 -34.635728 -7.193990 -10.107117 5.968706 6.148086 6.117269 2.608469 2.773949 2.712306 2.608469 2.773949 2.712306 1.943695 2.092129 2.022028 -9.264626 18.930836 3.231479 -17.972698 -0.013155 8.802328 9.731912 2.049056 13.113490 35.992370 -2.854682 83.258729 18.320111 -1.157138 -9.718348 -2.765441 1.601975 -7.598572 -28.504293 12.805585 -11.608114 -23.707715 9.699457 -61.081653 -47.875060 -23.367016 13.668629 -8.910985 11.359170 3.823223 124.898926 -84.020463 -119.387739 -87.052231 75.886260 -90.979247 15.790562 39.652249 4.600141 -0.181866 2.644450 -1.786731 18.118777 -10.249177 6.570158 -9.146025 25.830885 0.717797 1.725820 -9.249892 2.431395 0.002140 -0.376747 -0.682593
27.723361 90.106069 27.328487 -34.749793 -7.229419 -9.841589 5.990319 6.141063 6.059200 2.627072 2.770375 2.679779 2.627072 2.770375 2.679779 1.957809 2.089390 1.997569 -9.305896 18.982064 3.130162 -18.010740 0.069480 8.622571 9.729916 1.911470 13.107103 35.743507 -2.970682 82.982384 17.652699 -0.795302 -9.051054 -2.469417 1.739292 -7.179236 -28.473992 12.652647 -11.533792 -23.429383 10.034247 -60.959505 -48.132601 -22.991136 13.183125 -8.836163 11.336526 3.839100 105.488070 -84.951559 -99.505026 -84.342675 75.710317 -88.624534 15.137304 37.162479 4.643485 -0.093890 2.724749 -1.510335 17.847633 -9.952069 6.084537 -9.200693 25.622857 0.738087 1.850693 -9.070553 2.686780 0.015089 -0.331871 -0.619406
28.027589 90.089613 27.435123 -34.790757 -7.382338 -9.520350 5.928276 6.242880 5.971241 2.643255 2.769603 2.658201 2.643255 2.769603 2.658201 1.970045 2.088789 1.981320 -9.322562 18.998650 3.017800 -18.004835 0.082670 8.420893 9.840587 1.823074 13.107170 35.291244 -3.151307 82.650113 17.064328 -0.510557 -8.344396 -2.218078 1.807651 -6.889574 -28.433060 12.495497 -11.498702 -23.250388 10.351083 -60.821514 -48.218009 -22.846378 12.688714 -8.768560 11.260416 3.887277 76.826212 -85.076089 -70.372337 -81.629054 75.929522 -86.446295 13.582943 34.759213 4.315006 -0.017904 2.610419 -1.097418 17.620685 -9.554563 5.626104 -9.115516 25.419165 0.748226 1.844239 -8.946742 2.896479 0.024844 -0.259544 -0.509948
